<svg xmlns="http://www.w3.org/2000/svg" version="1.1" xmlns:xlink="http://www.w3.org/1999/xlink" xmlns:svgjs="http://svgjs.dev/svgjs" width="1500" height="943" viewBox="0 0 1500 943"><g transform="matrix(1,0,0,1,-0.9090909090909918,-1.4289670938161976)"><svg viewBox="0 0 396 249" data-background-color="#444444" preserveAspectRatio="xMidYMid meet" height="943" width="1500" xmlns="http://www.w3.org/2000/svg" xmlns:xlink="http://www.w3.org/1999/xlink"><g id="tight-bounds" transform="matrix(1,0,0,1,0.2400000000000091,0.9029114008622798)"><svg viewBox="0 0 395.52 247.2" height="247.2" width="395.52"><g><svg></svg></g><g><svg viewBox="0 0 395.52 247.2" height="247.2" width="395.52"><mask id="a522a075-a6ca-4282-a12b-6d1fff2e8e5b"><rect width="640" height="400" fill="white"></rect><g transform="matrix(1,0,0,1,39.55199999999999,86.03104454920043)"><svg viewBox="0 0 316.416 75.13791090159913" height="75.13791090159913" width="316.416"><g><svg viewBox="0 0 316.416 75.13791090159913" height="75.13791090159913" width="316.416"><g><svg viewBox="0 0 316.416 75.13791090159913" height="75.13791090159913" width="316.416"><g><svg viewBox="0 0 316.416 75.13791090159913" height="75.13791090159913" width="316.416"><g id="SvgjsG2409"><svg viewBox="0 0 316.416 75.13791090159913" height="75.13791090159913" width="316.416" id="SvgjsSvg2408"><g><svg viewBox="0 0 316.416 43.68411577155239" height="43.68411577155239" width="316.416"><g transform="matrix(1,0,0,1,0,0)"><svg width="316.416" viewBox="-3.5 -41 324.02 45.6" height="43.68411577155239" data-palette-color="#ffffff"><path d="M18.7 0L13.35 0 0.5-33.75 5.15-35.55 16.15-5.2 27.2-35.4 31.5-33.75 18.7 0ZM44.15 0.6L44.15 0.6Q38.55 0.6 35.27-2.98 32-6.55 32-13L32-13Q32-16.9 33.47-19.98 34.95-23.05 37.6-24.83 40.25-26.6 43.75-26.6L43.75-26.6Q47.5-26.6 49.97-24.98 52.45-23.35 53.7-20.6 54.95-17.85 54.95-14.55L54.95-14.55Q54.95-12.8 54.8-11.15L54.8-11.15 36.6-11.15Q37.05-7.5 39.15-5.45 41.25-3.4 44.7-3.4L44.7-3.4Q46.95-3.4 48.75-3.88 50.55-4.35 52.2-5.1L52.2-5.1 53.25-1.25Q51.45-0.45 49.2 0.08 46.95 0.6 44.15 0.6ZM36.55-14.8L36.55-14.8 50.8-14.8Q50.8-18.6 48.9-20.65 47-22.7 43.65-22.7L43.65-22.7Q40.75-22.7 38.85-20.68 36.95-18.65 36.55-14.8ZM70.8 0.6L70.8 0.6Q67.6 0.6 64.95-1.05 62.3-2.7 60.75-5.73 59.2-8.75 59.2-12.85L59.2-12.85Q59.2-16.8 60.77-19.9 62.35-23 64.97-24.8 67.6-26.6 70.75-26.6L70.75-26.6Q73.35-26.6 75.22-25.55 77.1-24.5 78.15-23.4L78.15-23.4 78.15-37 82.65-37 82.65-6.3Q82.65-4.4 83.57-3.83 84.5-3.25 85.6-3.25L85.6-3.25 84.65 0.25Q79.9 0.25 78.85-3.55L78.85-3.55Q77.75-2 75.77-0.7 73.8 0.6 70.8 0.6ZM71.8-3.4L71.8-3.4Q73.65-3.4 75.32-4.28 77-5.15 78.15-6.55L78.15-6.55 78.15-19.45Q77.2-20.65 75.5-21.68 73.8-22.7 71.75-22.7L71.75-22.7Q69.35-22.7 67.55-21.4 65.75-20.1 64.77-17.93 63.8-15.75 63.8-13L63.8-13Q63.8-10.25 64.85-8.08 65.9-5.9 67.72-4.65 69.55-3.4 71.8-3.4ZM101.04 0.6L101.04 0.6Q97.79 0.6 95.14-1.05 92.49-2.7 90.92-5.73 89.34-8.75 89.34-12.85L89.34-12.85Q89.34-16.75 90.92-19.85 92.49-22.95 95.27-24.78 98.04-26.6 101.64-26.6L101.64-26.6Q103.89-26.6 105.72-25.83 107.54-25.05 108.89-23.9L108.89-23.9 108.89-26 112.99-26 112.99-6.3Q112.99-4.4 113.92-3.83 114.84-3.25 115.94-3.25L115.94-3.25 114.99 0.25Q110.19 0.25 109.19-3.65L109.19-3.65Q108.04-2.05 106.07-0.73 104.09 0.6 101.04 0.6ZM102.04-3.4L102.04-3.4Q103.94-3.4 105.64-4.33 107.34-5.25 108.49-6.65L108.49-6.65 108.49-20.6Q107.14-21.55 105.52-22.13 103.89-22.7 102.09-22.7L102.09-22.7Q99.69-22.7 97.87-21.48 96.04-20.25 94.99-18.07 93.94-15.9 93.94-13L93.94-13Q93.94-10.2 94.99-8.03 96.04-5.85 97.89-4.63 99.74-3.4 102.04-3.4ZM126.44 0L121.94 0 121.94-26 126.29-26 126.29-21.65Q127.69-23.75 129.87-25.18 132.04-26.6 135.04-26.6L135.04-26.6Q139.44-26.6 141.62-23.95 143.79-21.3 143.79-16.95L143.79-16.95 143.79 0 139.29 0 139.29-16.45Q139.29-19.25 137.97-20.95 136.64-22.65 134.29-22.65L134.29-22.65Q131.99-22.65 129.94-21.03 127.89-19.4 126.44-17.2L126.44-17.2 126.44 0ZM160.64 0.6L160.64 0.6Q156.89 0.6 154.71-1.88 152.54-4.35 152.54-8.95L152.54-8.95 152.54-21.15 148.04-21.15 148.04-25.05 152.64-25.05 153.59-33.25 157.04-33.25 157.04-25.05 164.24-25.05 164.24-21.15 157.04-21.15 157.04-8.6Q157.04-5.7 158.26-4.55 159.49-3.4 161.19-3.4L161.19-3.4Q162.44-3.4 163.56-3.8 164.69-4.2 165.64-4.75L165.64-4.75 166.89-1.15Q165.89-0.55 164.19 0.03 162.49 0.6 160.64 0.6ZM211.93-2.8L208.63 0.6 191.63-16.1 191.63 0 186.88 0 186.88-35 191.63-35 191.63-19.05 206.53-35.15 209.73-32.2 196.08-18 211.93-2.8ZM220.93 0L216.43 0 216.43-37 220.93-37 220.93-21.85Q222.33-23.9 224.48-25.25 226.63-26.6 229.53-26.6L229.53-26.6Q233.93-26.6 236.11-23.95 238.28-21.3 238.28-16.95L238.28-16.95 238.28 0 233.78 0 233.78-16.45Q233.78-19.25 232.48-20.95 231.18-22.65 228.83-22.65L228.83-22.65Q226.53-22.65 224.46-21.03 222.38-19.4 220.93-17.2L220.93-17.2 220.93 0ZM255.98 0.6L255.98 0.6Q252.73 0.6 250.08-1.05 247.43-2.7 245.85-5.73 244.28-8.75 244.28-12.85L244.28-12.85Q244.28-16.75 245.85-19.85 247.43-22.95 250.2-24.78 252.98-26.6 256.58-26.6L256.58-26.6Q258.83-26.6 260.65-25.83 262.48-25.05 263.83-23.9L263.83-23.9 263.83-26 267.93-26 267.93-6.3Q267.93-4.4 268.85-3.83 269.78-3.25 270.88-3.25L270.88-3.25 269.93 0.25Q265.13 0.25 264.13-3.65L264.13-3.65Q262.98-2.05 261-0.73 259.03 0.6 255.98 0.6ZM256.98-3.4L256.98-3.4Q258.88-3.4 260.58-4.33 262.28-5.25 263.43-6.65L263.43-6.65 263.43-20.6Q262.08-21.55 260.45-22.13 258.83-22.7 257.03-22.7L257.03-22.7Q254.63-22.7 252.8-21.48 250.98-20.25 249.93-18.07 248.88-15.9 248.88-13L248.88-13Q248.88-10.2 249.93-8.03 250.98-5.85 252.83-4.63 254.68-3.4 256.98-3.4ZM281.38 0L276.88 0 276.88-26 281.23-26 281.23-20.35Q281.88-22 282.98-23.43 284.08-24.85 285.73-25.73 287.38-26.6 289.58-26.6L289.58-26.6Q290.33-26.6 291.08-26.53 291.83-26.45 292.33-26.3L292.33-26.3 290.98-21.65Q290.03-22.05 288.73-22.05L288.73-22.05Q286.88-22.05 285.2-21 283.53-19.95 282.45-17.75 281.38-15.55 281.38-12.15L281.38-12.15 281.38 0ZM305.72 0.6L305.72 0.6Q300.12 0.6 296.85-2.98 293.57-6.55 293.57-13L293.57-13Q293.57-16.9 295.05-19.98 296.52-23.05 299.17-24.83 301.82-26.6 305.32-26.6L305.32-26.6Q309.07-26.6 311.55-24.98 314.02-23.35 315.27-20.6 316.52-17.85 316.52-14.55L316.52-14.55Q316.52-12.8 316.37-11.15L316.37-11.15 298.17-11.15Q298.62-7.5 300.72-5.45 302.82-3.4 306.27-3.4L306.27-3.4Q308.52-3.4 310.32-3.88 312.12-4.35 313.77-5.1L313.77-5.1 314.82-1.25Q313.02-0.45 310.77 0.08 308.52 0.6 305.72 0.6ZM298.12-14.8L298.12-14.8 312.37-14.8Q312.37-18.6 310.47-20.65 308.57-22.7 305.22-22.7L305.22-22.7Q302.32-22.7 300.42-20.68 298.52-18.65 298.12-14.8Z" opacity="1" transform="matrix(1,0,0,1,0,0)" fill="black" class="wordmark-text-0" id="SvgjsPath2407" stroke-width="7" stroke="black" stroke-linejoin="round"></path></svg></g></svg></g><g transform="matrix(1,0,0,1,3.5,52.3782906917245)"><svg viewBox="0 0 309.416 22.759620209874633" height="22.759620209874633" width="309.416"><g transform="matrix(1,0,0,1,0,0)"><svg width="309.416" viewBox="-1.75 -39.18 684.64 51.09" height="22.759620209874633" data-palette-color="#00d1cd"><path d="M5.64-16.02L5.64 0 2.25 0 2.25-34.86 16.38-34.86 16.38-31.74 5.64-31.74 5.64-19.14 15.67-19.14 15.67-16.02 5.64-16.02ZM43.65 0.29L43.65 0.29Q40.91 0.29 39.53-0.93 38.15-2.15 38.15-4.96L38.15-4.96 38.15-23.75 41.28-23.75 41.28-4.69Q41.28-3.49 42.03-2.93 42.79-2.37 44.5-2.37L44.5-2.37Q46.23-2.37 47.54-2.95 48.85-3.54 49.46-4.59L49.46-4.59 49.46-23.75 52.63-23.75 52.63 0 49.46 0 49.46-2.25 48.8-2.25Q47.19 0.29 43.65 0.29ZM79.97-31.69L79.97 0 76.79 0 76.79-31.69 79.97-31.69ZM107.89-31.69L107.89 0 104.71 0 104.71-31.69 107.89-31.69ZM169.18 0.32L169.18 0.32Q164.59 0.32 162.54-1.14 160.49-2.59 160.36-5.93L160.36-5.93Q160.24-7.79 160.28-9.3 160.32-10.82 160.44-12.7L160.44-12.7 163.73-12.7Q163.59-10.82 163.6-8.96 163.61-7.1 163.73-5.37L163.73-5.37Q163.86-3.96 165.08-3.28 166.3-2.61 169.1-2.61L169.1-2.61Q171.86-2.61 173.02-3.28 174.18-3.96 174.33-5.37L174.33-5.37Q174.45-7.1 174.44-8.39 174.43-9.67 174.33-11.57L174.33-11.57Q174.23-13.09 173.54-14.11 172.84-15.14 170.45-15.45L170.45-15.45 166.96-16.09Q164.2-16.55 162.82-17.44 161.44-18.33 160.94-19.74 160.44-21.14 160.34-23.17L160.34-23.17Q160.27-24.51 160.29-26.04 160.32-27.56 160.39-29L160.39-29Q160.44-32.32 162.43-33.75 164.42-35.18 169.1-35.18L169.1-35.18Q173.43-35.18 175.39-33.74 177.36-32.3 177.48-28.98L177.48-28.98Q177.55-27.83 177.53-26.14 177.5-24.44 177.43-22.63L177.43-22.63 174.11-22.63Q174.28-24.37 174.28-26.1 174.28-27.83 174.16-29.54L174.16-29.54Q174.06-30.93 172.88-31.59 171.69-32.25 169.03-32.25L169.03-32.25Q166.27-32.25 165.09-31.59 163.9-30.93 163.78-29.54L163.78-29.54Q163.66-27.98 163.67-26.37 163.68-24.76 163.78-23.17L163.78-23.17Q163.88-21.39 164.55-20.45 165.22-19.51 167.74-19.21L167.74-19.21 171.16-18.68Q173.91-18.26 175.31-17.33 176.7-16.41 177.2-14.98 177.7-13.55 177.77-11.57L177.77-11.57Q177.89-9.77 177.87-8.64 177.84-7.52 177.72-5.93L177.72-5.93Q177.55-2.59 175.56-1.14 173.57 0.32 169.18 0.32ZM208.26 0.29L208.26 0.29Q204.45 0.29 203.12-0.98 201.79-2.25 201.79-5.13L201.79-5.13 201.79-21.02 199.44-21.02 199.44-23.75 201.86-23.75 201.86-30.49 204.96-30.49 204.96-23.75 210.33-23.75 210.33-21.02 204.94-21.02 204.94-4.79Q204.94-3.44 205.5-2.93 206.06-2.42 208.33-2.42L208.33-2.42Q209.26-2.42 209.76-2.45 210.26-2.49 210.92-2.51L210.92-2.51 210.92 0.1Q210.33 0.2 209.65 0.24 208.97 0.29 208.26 0.29ZM237.99 0.27L237.99 0.27Q235.01 0.27 233.58-0.9 232.15-2.08 231.91-4.57L231.91-4.57Q231.88-5.05 231.85-5.54 231.81-6.03 231.86-6.49L231.86-6.49Q232.03-8.67 233.23-10.14 234.42-11.62 237.77-12.84L237.77-12.84Q239.13-13.33 240.65-13.72 242.16-14.11 243.65-14.48L243.65-14.48 243.65-18.99Q243.65-20.19 242.75-20.76 241.84-21.34 239.6-21.34L239.6-21.34Q237.64-21.34 236.63-20.85 235.62-20.36 235.52-19.07L235.52-19.07Q235.47-18.46 235.47-17.32 235.47-16.19 235.52-15.41L235.52-15.41 232.47-15.41Q232.42-16.02 232.37-16.99 232.32-17.97 232.4-18.73L232.4-18.73Q232.52-21.56 234.24-22.81 235.96-24.07 239.72-24.07L239.72-24.07Q243.65-24.07 245.18-22.71 246.7-21.34 246.73-18.21L246.73-18.21 246.73 0 243.65 0 243.65-2.25 242.97-2.25Q242.36-1.03 241.22-0.38 240.09 0.27 237.99 0.27ZM238.77-2.37L238.77-2.37Q242.28-2.37 243.63-4.47L243.63-4.47 243.63-11.87Q242.45-11.62 241.22-11.29 239.99-10.96 238.33-10.4L238.33-10.4Q236.35-9.67 235.69-8.72 235.03-7.76 234.93-6.49L234.93-6.49Q234.96-6.13 234.97-5.7 234.98-5.27 235.03-4.81L235.03-4.81Q235.2-3.64 236.2-3 237.2-2.37 238.77-2.37ZM284.68-15.41L284.68-15.41 281.61-15.41Q281.7-16.26 281.69-17.36 281.68-18.46 281.68-19.07L281.68-19.07Q281.66-20.36 280.67-20.85 279.68-21.34 277.43-21.34L277.43-21.34Q275.14-21.34 274.16-20.85 273.18-20.36 273.16-19.07L273.16-19.07Q272.99-15.23 272.99-11.93 272.99-8.62 273.16-4.81L273.16-4.81Q273.18-3.47 274.16-2.95 275.14-2.44 277.41-2.44L277.41-2.44Q279.65-2.44 280.65-2.95 281.66-3.47 281.68-4.81L281.68-4.81Q281.68-5.47 281.69-6.41 281.7-7.35 281.61-8.47L281.61-8.47 284.68-8.47Q284.81-7.76 284.79-6.82 284.78-5.88 284.73-5.13L284.73-5.13Q284.59-2.25 282.94-0.98 281.29 0.29 277.41 0.29L277.41 0.29Q273.5 0.29 271.8-0.98 270.11-2.25 269.99-5.13L269.99-5.13Q269.89-6.93 269.85-9.38 269.81-11.82 269.85-14.28 269.89-16.75 269.99-18.58L269.99-18.58Q270.11-21.53 271.83-22.8 273.55-24.07 277.43-24.07L277.43-24.07Q281.29-24.07 282.99-22.83 284.68-21.58 284.73-18.73L284.73-18.73Q284.78-17.99 284.79-17.05 284.81-16.11 284.68-15.41ZM310.75-7.89L310.75 0 307.7 0 307.7-31.69 310.7-31.69 310.7-23.88 310.43-13.53 311.26-13.53 313.63-18.14 317.29-23.75 320.61-23.75 314.56-14.18 322.03 0 318.73 0 312.7-10.5 310.75-7.89ZM380.75 0L380.75 0 372.21 0 372.21-34.86 380.88-34.86Q385.42-34.86 387.46-33.4 389.5-31.93 389.57-28.54L389.57-28.54Q389.69-24.58 389.73-21.02 389.76-17.46 389.73-13.89 389.69-10.33 389.57-6.35L389.57-6.35Q389.5-2.95 387.44-1.48 385.39 0 380.75 0ZM380.88-31.74L375.6-31.74 375.6-3.13 380.75-3.13Q383.61-3.13 384.88-3.83 386.15-4.54 386.17-5.98L386.17-5.98Q386.54-17.43 386.17-28.93L386.17-28.93Q386.15-30.37 384.89-31.05 383.64-31.74 380.88-31.74L380.88-31.74ZM420.32 0.29L420.32 0.29Q416.29 0.29 414.57-0.98 412.85-2.25 412.73-5.13L412.73-5.13Q412.63-6.93 412.6-9.38 412.56-11.82 412.6-14.28 412.63-16.75 412.73-18.58L412.73-18.58Q412.85-21.53 414.62-22.8 416.39-24.07 420.32-24.07L420.32-24.07Q424.03-24.07 425.69-22.83 427.35-21.58 427.53-18.73L427.53-18.73Q427.57-17.87 427.62-15.75 427.67-13.62 427.48-11.23L427.48-11.23 415.78-11.23Q415.78-9.69 415.81-8.11 415.83-6.52 415.9-4.81L415.9-4.81Q415.93-3.47 416.93-2.95 417.93-2.44 420.23-2.44L420.23-2.44Q422.5-2.44 423.42-2.95 424.35-3.47 424.45-4.81L424.45-4.81Q424.52-6.15 424.45-8.47L424.45-8.47 427.48-8.47Q427.6-7.76 427.59-6.82 427.57-5.88 427.53-5.13L427.53-5.13Q427.35-2.25 425.78-0.98 424.2 0.29 420.32 0.29ZM415.78-13.82L415.78-13.82 424.5-13.82Q424.55-15.48 424.55-16.99 424.55-18.51 424.45-19.07L424.45-19.07Q424.35-20.29 423.4-20.81 422.45-21.34 420.32-21.34L420.32-21.34Q417.95-21.34 416.94-20.81 415.93-20.29 415.9-19.07L415.9-19.07Q415.83-17.65 415.79-16.36 415.76-15.06 415.78-13.82ZM464.97-23.75L460.21 0 453.64 0 449.12-23.75 452.4-23.75 454.25-11.82 455.98-2.71 457.86-2.71 459.7-11.82 461.67-23.75 464.97-23.75ZM494.36 0.29L494.36 0.29Q490.33 0.29 488.61-0.98 486.89-2.25 486.76-5.13L486.76-5.13Q486.67-6.93 486.63-9.38 486.59-11.82 486.63-14.28 486.67-16.75 486.76-18.58L486.76-18.58Q486.89-21.53 488.66-22.8 490.43-24.07 494.36-24.07L494.36-24.07Q498.07-24.07 499.73-22.83 501.39-21.58 501.56-18.73L501.56-18.73Q501.61-17.87 501.66-15.75 501.7-13.62 501.51-11.23L501.51-11.23 489.82-11.23Q489.82-9.69 489.84-8.11 489.86-6.52 489.94-4.81L489.94-4.81Q489.96-3.47 490.96-2.95 491.96-2.44 494.26-2.44L494.26-2.44Q496.53-2.44 497.46-2.95 498.38-3.47 498.48-4.81L498.48-4.81Q498.56-6.15 498.48-8.47L498.48-8.47 501.51-8.47Q501.63-7.76 501.62-6.82 501.61-5.88 501.56-5.13L501.56-5.13Q501.39-2.25 499.81-0.98 498.24 0.29 494.36 0.29ZM489.82-13.82L489.82-13.82 498.53-13.82Q498.58-15.48 498.58-16.99 498.58-18.51 498.48-19.07L498.48-19.07Q498.38-20.29 497.43-20.81 496.48-21.34 494.36-21.34L494.36-21.34Q491.99-21.34 490.97-20.81 489.96-20.29 489.94-19.07L489.94-19.07Q489.86-17.65 489.83-16.36 489.79-15.06 489.82-13.82ZM528.43-31.69L528.43 0 525.26 0 525.26-31.69 528.43-31.69ZM559.8 0.29L559.8 0.29Q555.82 0.29 554.18-1.07 552.54-2.44 552.42-5.62L552.42-5.62Q552.28-7.42 552.23-9.63 552.18-11.84 552.23-14.09 552.28-16.33 552.42-18.16L552.42-18.16Q552.54-21.34 554.19-22.71 555.84-24.07 559.8-24.07L559.8-24.07Q563.8-24.07 565.4-22.71 567-21.34 567.12-18.16L567.12-18.16Q567.27-16.36 567.32-14.15 567.36-11.94 567.32-9.7 567.27-7.47 567.12-5.62L567.12-5.62Q567-2.47 565.4-1.09 563.8 0.29 559.8 0.29ZM559.8-2.44L559.8-2.44Q562.04-2.44 562.99-2.99 563.95-3.54 564.02-4.81L564.02-4.81Q564.26-8.62 564.26-11.89 564.26-15.16 564.02-18.97L564.02-18.97Q563.95-20.26 563.02-20.8 562.09-21.34 559.8-21.34L559.8-21.34Q557.5-21.34 556.56-20.8 555.62-20.26 555.55-18.97L555.55-18.97Q555.33-15.16 555.32-11.88 555.3-8.59 555.55-4.81L555.55-4.81Q555.6-3.54 556.59-2.99 557.57-2.44 559.8-2.44ZM593.7-2.25L593.7 7.91 590.55 7.91 590.55-23.75 593.7-23.75 593.7-21.53 594.38-21.53Q595.21-22.83 596.37-23.45 597.53-24.07 599.56-24.07L599.56-24.07Q602.34-24.07 603.67-22.86 605-21.66 605.08-18.82L605.08-18.82Q605.15-17.58 605.17-15.81 605.2-14.04 605.2-12.07 605.2-10.11 605.17-8.25 605.15-6.4 605.08-4.96L605.08-4.96Q605-2.15 603.61-0.93 602.22 0.29 599.44 0.29L599.44 0.29Q597.61 0.29 596.43-0.31 595.26-0.9 594.38-2.25L594.38-2.25 593.7-2.25ZM598.56-2.37L598.56-2.37Q601.85-2.37 601.95-4.69L601.95-4.69Q602.15-8.47 602.11-12.16 602.07-15.84 601.95-19.09L601.95-19.09Q601.9-20.31 601.17-20.86 600.44-21.41 598.7-21.41L598.7-21.41Q594.97-21.41 593.7-19.19L593.7-19.19 593.7-4.59Q594.36-3.39 595.49-2.88 596.63-2.37 598.56-2.37ZM635.76 0.29L635.76 0.29Q631.73 0.29 630.01-0.98 628.29-2.25 628.16-5.13L628.16-5.13Q628.07-6.93 628.03-9.38 627.99-11.82 628.03-14.28 628.07-16.75 628.16-18.58L628.16-18.58Q628.29-21.53 630.06-22.8 631.83-24.07 635.76-24.07L635.76-24.07Q639.47-24.07 641.13-22.83 642.79-21.58 642.96-18.73L642.96-18.73Q643.01-17.87 643.06-15.75 643.11-13.62 642.91-11.23L642.91-11.23 631.22-11.23Q631.22-9.69 631.24-8.11 631.27-6.52 631.34-4.81L631.34-4.81Q631.36-3.47 632.36-2.95 633.37-2.44 635.66-2.44L635.66-2.44Q637.93-2.44 638.86-2.95 639.79-3.47 639.88-4.81L639.88-4.81Q639.96-6.15 639.88-8.47L639.88-8.47 642.91-8.47Q643.03-7.76 643.02-6.82 643.01-5.88 642.96-5.13L642.96-5.13Q642.79-2.25 641.21-0.98 639.64 0.29 635.76 0.29ZM631.22-13.82L631.22-13.82 639.93-13.82Q639.98-15.48 639.98-16.99 639.98-18.51 639.88-19.07L639.88-19.07Q639.79-20.29 638.83-20.81 637.88-21.34 635.76-21.34L635.76-21.34Q633.39-21.34 632.38-20.81 631.36-20.29 631.34-19.07L631.34-19.07Q631.27-17.65 631.23-16.36 631.19-15.06 631.22-13.82ZM669.3-19.19L669.3 0 666.15 0 666.15-23.75 669.3-23.75 669.3-21.53 669.98-21.53Q670.61-22.75 671.66-23.41 672.71-24.07 674.28-24.07L674.28-24.07Q676.62-24.07 677.75-22.84 678.89-21.61 678.89-18.58L678.89-18.58Q678.89-17.92 678.84-17.02 678.79-16.11 678.69-15.41L678.69-15.41 675.67-15.41Q675.72-15.65 675.73-16.26 675.74-16.87 675.75-17.48 675.77-18.09 675.77-18.31L675.77-18.31Q675.77-20.12 675.15-20.76 674.54-21.41 673.2-21.41L673.2-21.41Q670.35-21.41 669.3-19.19L669.3-19.19Z" opacity="1" transform="matrix(1,0,0,1,0,0)" fill="black" class="slogan-text-1" id="SvgjsPath2406" stroke-width="7" stroke="black" stroke-linejoin="round"></path></svg></g></svg></g></svg></g></svg></g></svg></g></svg></g></svg></g></mask><g transform="matrix(1,0,0,1,39.55199999999999,86.03104454920043)"><svg viewBox="0 0 316.416 75.13791090159913" height="75.13791090159913" width="316.416"><g><svg viewBox="0 0 316.416 75.13791090159913" height="75.13791090159913" width="316.416"><g><svg viewBox="0 0 316.416 75.13791090159913" height="75.13791090159913" width="316.416"><g><svg viewBox="0 0 316.416 75.13791090159913" height="75.13791090159913" width="316.416"><g id="textblocktransform"><svg viewBox="0 0 316.416 75.13791090159913" height="75.13791090159913" width="316.416" id="textblock"><g><svg viewBox="0 0 316.416 43.68411577155239" height="43.68411577155239" width="316.416"><g transform="matrix(1,0,0,1,0,0)"><svg width="316.416" viewBox="-3.5 -41 324.02 45.6" height="43.68411577155239" data-palette-color="#ffffff"><path d="M18.7 0L13.35 0 0.5-33.75 5.15-35.55 16.15-5.2 27.2-35.4 31.5-33.75 18.7 0ZM44.15 0.6L44.15 0.6Q38.55 0.6 35.27-2.98 32-6.55 32-13L32-13Q32-16.9 33.47-19.98 34.95-23.05 37.6-24.83 40.25-26.6 43.75-26.6L43.75-26.6Q47.5-26.6 49.97-24.98 52.45-23.35 53.7-20.6 54.95-17.85 54.95-14.55L54.95-14.55Q54.95-12.8 54.8-11.15L54.8-11.15 36.6-11.15Q37.05-7.5 39.15-5.45 41.25-3.4 44.7-3.4L44.7-3.4Q46.95-3.4 48.75-3.88 50.55-4.35 52.2-5.1L52.2-5.1 53.25-1.25Q51.45-0.45 49.2 0.08 46.95 0.6 44.15 0.6ZM36.55-14.8L36.55-14.8 50.8-14.8Q50.8-18.6 48.9-20.65 47-22.7 43.65-22.7L43.65-22.7Q40.75-22.7 38.85-20.68 36.95-18.65 36.55-14.8ZM70.8 0.6L70.8 0.6Q67.6 0.6 64.95-1.05 62.3-2.7 60.75-5.73 59.2-8.75 59.2-12.85L59.2-12.85Q59.2-16.8 60.77-19.9 62.35-23 64.97-24.8 67.6-26.6 70.75-26.6L70.75-26.6Q73.35-26.6 75.22-25.55 77.1-24.5 78.15-23.4L78.15-23.4 78.15-37 82.65-37 82.65-6.3Q82.65-4.4 83.57-3.83 84.5-3.25 85.6-3.25L85.6-3.25 84.65 0.25Q79.9 0.25 78.85-3.55L78.85-3.55Q77.75-2 75.77-0.7 73.8 0.6 70.8 0.6ZM71.8-3.4L71.8-3.4Q73.65-3.4 75.32-4.28 77-5.15 78.15-6.55L78.15-6.55 78.15-19.45Q77.2-20.65 75.5-21.68 73.8-22.7 71.75-22.7L71.75-22.7Q69.35-22.7 67.55-21.4 65.75-20.1 64.77-17.93 63.8-15.75 63.8-13L63.8-13Q63.8-10.25 64.85-8.08 65.9-5.9 67.72-4.65 69.55-3.4 71.8-3.4ZM101.04 0.6L101.04 0.6Q97.79 0.6 95.14-1.05 92.49-2.7 90.92-5.73 89.34-8.75 89.34-12.85L89.34-12.85Q89.34-16.75 90.92-19.85 92.49-22.95 95.27-24.78 98.04-26.6 101.64-26.6L101.64-26.6Q103.89-26.6 105.72-25.83 107.54-25.05 108.89-23.9L108.89-23.9 108.89-26 112.99-26 112.99-6.3Q112.99-4.4 113.92-3.83 114.84-3.25 115.94-3.25L115.94-3.25 114.99 0.25Q110.19 0.25 109.19-3.65L109.19-3.65Q108.04-2.05 106.07-0.73 104.09 0.6 101.04 0.6ZM102.04-3.4L102.04-3.4Q103.94-3.4 105.64-4.33 107.34-5.25 108.49-6.65L108.49-6.65 108.49-20.6Q107.14-21.55 105.52-22.13 103.89-22.7 102.09-22.7L102.09-22.7Q99.69-22.7 97.87-21.48 96.04-20.25 94.99-18.07 93.94-15.9 93.94-13L93.94-13Q93.94-10.2 94.99-8.03 96.04-5.85 97.89-4.63 99.74-3.4 102.04-3.4ZM126.44 0L121.94 0 121.94-26 126.29-26 126.29-21.65Q127.69-23.75 129.87-25.18 132.04-26.6 135.04-26.6L135.04-26.6Q139.44-26.6 141.62-23.95 143.79-21.3 143.79-16.95L143.79-16.95 143.79 0 139.29 0 139.29-16.45Q139.29-19.25 137.97-20.95 136.64-22.65 134.29-22.65L134.29-22.65Q131.99-22.65 129.94-21.03 127.89-19.4 126.44-17.2L126.44-17.2 126.44 0ZM160.64 0.6L160.64 0.6Q156.89 0.6 154.71-1.88 152.54-4.35 152.54-8.95L152.54-8.95 152.54-21.15 148.04-21.15 148.04-25.05 152.64-25.05 153.59-33.25 157.04-33.25 157.04-25.05 164.24-25.05 164.24-21.15 157.04-21.15 157.04-8.6Q157.04-5.7 158.26-4.55 159.49-3.4 161.19-3.4L161.19-3.4Q162.44-3.4 163.56-3.8 164.69-4.2 165.64-4.75L165.64-4.75 166.89-1.15Q165.89-0.55 164.19 0.03 162.49 0.6 160.64 0.6ZM211.93-2.8L208.63 0.6 191.63-16.1 191.63 0 186.88 0 186.88-35 191.63-35 191.63-19.05 206.53-35.15 209.73-32.2 196.08-18 211.93-2.8ZM220.93 0L216.43 0 216.43-37 220.93-37 220.93-21.85Q222.33-23.9 224.48-25.25 226.63-26.6 229.53-26.6L229.53-26.6Q233.93-26.6 236.11-23.95 238.28-21.3 238.28-16.95L238.28-16.95 238.28 0 233.78 0 233.78-16.45Q233.78-19.25 232.48-20.95 231.18-22.65 228.83-22.65L228.83-22.65Q226.53-22.65 224.46-21.03 222.38-19.4 220.93-17.2L220.93-17.2 220.93 0ZM255.98 0.6L255.98 0.6Q252.73 0.6 250.08-1.05 247.43-2.7 245.85-5.73 244.28-8.75 244.28-12.85L244.28-12.85Q244.28-16.75 245.85-19.85 247.43-22.95 250.2-24.78 252.98-26.6 256.58-26.6L256.58-26.6Q258.83-26.6 260.65-25.83 262.48-25.05 263.83-23.9L263.83-23.9 263.83-26 267.93-26 267.93-6.3Q267.93-4.4 268.85-3.83 269.78-3.25 270.88-3.25L270.88-3.25 269.93 0.25Q265.13 0.25 264.13-3.65L264.13-3.65Q262.98-2.05 261-0.73 259.03 0.6 255.98 0.6ZM256.98-3.4L256.98-3.4Q258.88-3.4 260.58-4.33 262.28-5.25 263.43-6.65L263.43-6.65 263.43-20.6Q262.08-21.55 260.45-22.13 258.83-22.7 257.03-22.7L257.03-22.7Q254.63-22.7 252.8-21.48 250.98-20.25 249.93-18.07 248.88-15.9 248.88-13L248.88-13Q248.88-10.2 249.93-8.03 250.98-5.85 252.83-4.63 254.68-3.4 256.98-3.4ZM281.38 0L276.88 0 276.88-26 281.23-26 281.23-20.35Q281.88-22 282.98-23.43 284.08-24.85 285.73-25.73 287.38-26.6 289.58-26.6L289.58-26.6Q290.33-26.6 291.08-26.53 291.83-26.45 292.33-26.3L292.33-26.3 290.98-21.65Q290.03-22.05 288.73-22.05L288.73-22.05Q286.88-22.05 285.2-21 283.53-19.95 282.45-17.75 281.38-15.55 281.38-12.15L281.38-12.15 281.38 0ZM305.72 0.6L305.72 0.6Q300.12 0.6 296.85-2.98 293.57-6.55 293.57-13L293.57-13Q293.57-16.9 295.05-19.98 296.52-23.05 299.17-24.83 301.82-26.6 305.32-26.6L305.32-26.6Q309.07-26.6 311.55-24.98 314.02-23.35 315.27-20.6 316.52-17.85 316.52-14.55L316.52-14.55Q316.52-12.8 316.37-11.15L316.37-11.15 298.17-11.15Q298.62-7.5 300.72-5.45 302.82-3.4 306.27-3.4L306.27-3.4Q308.52-3.4 310.32-3.88 312.12-4.35 313.77-5.1L313.77-5.1 314.82-1.25Q313.02-0.45 310.77 0.08 308.52 0.6 305.72 0.6ZM298.12-14.8L298.12-14.8 312.37-14.8Q312.37-18.6 310.47-20.65 308.57-22.7 305.22-22.7L305.22-22.7Q302.32-22.7 300.42-20.68 298.52-18.65 298.12-14.8Z" opacity="1" transform="matrix(1,0,0,1,0,0)" fill="#ffffff" class="wordmark-text-0" data-fill-palette-color="primary" id="text-0"></path></svg></g></svg></g><g transform="matrix(1,0,0,1,3.5,52.3782906917245)"><svg viewBox="0 0 309.416 22.759620209874633" height="22.759620209874633" width="309.416"><g transform="matrix(1,0,0,1,0,0)"><svg width="309.416" viewBox="-1.75 -39.18 684.64 51.09" height="22.759620209874633" data-palette-color="#00d1cd"><path d="M5.64-16.02L5.64 0 2.25 0 2.25-34.86 16.38-34.86 16.38-31.74 5.64-31.74 5.64-19.14 15.67-19.14 15.67-16.02 5.64-16.02ZM43.65 0.29L43.65 0.29Q40.91 0.29 39.53-0.93 38.15-2.15 38.15-4.96L38.15-4.96 38.15-23.75 41.28-23.75 41.28-4.69Q41.28-3.49 42.03-2.93 42.79-2.37 44.5-2.37L44.5-2.37Q46.23-2.37 47.54-2.95 48.85-3.54 49.46-4.59L49.46-4.59 49.46-23.75 52.63-23.75 52.63 0 49.46 0 49.46-2.25 48.8-2.25Q47.19 0.29 43.65 0.29ZM79.97-31.69L79.97 0 76.79 0 76.79-31.69 79.97-31.69ZM107.89-31.69L107.89 0 104.71 0 104.71-31.69 107.89-31.69ZM169.18 0.32L169.18 0.32Q164.59 0.32 162.54-1.14 160.49-2.59 160.36-5.93L160.36-5.93Q160.24-7.79 160.28-9.3 160.32-10.82 160.44-12.7L160.44-12.7 163.73-12.7Q163.59-10.82 163.6-8.96 163.61-7.1 163.73-5.37L163.73-5.37Q163.86-3.96 165.08-3.28 166.3-2.61 169.1-2.61L169.1-2.61Q171.86-2.61 173.02-3.28 174.18-3.96 174.33-5.37L174.33-5.37Q174.45-7.1 174.44-8.39 174.43-9.67 174.33-11.57L174.33-11.57Q174.23-13.09 173.54-14.11 172.84-15.14 170.45-15.45L170.45-15.45 166.96-16.09Q164.2-16.55 162.82-17.44 161.44-18.33 160.94-19.74 160.44-21.14 160.34-23.17L160.34-23.17Q160.27-24.51 160.29-26.04 160.32-27.56 160.39-29L160.39-29Q160.44-32.32 162.43-33.75 164.42-35.18 169.1-35.18L169.1-35.18Q173.43-35.18 175.39-33.74 177.36-32.3 177.48-28.98L177.48-28.98Q177.55-27.83 177.53-26.14 177.5-24.44 177.43-22.63L177.43-22.63 174.11-22.63Q174.28-24.37 174.28-26.1 174.28-27.83 174.16-29.54L174.16-29.54Q174.06-30.93 172.88-31.59 171.69-32.25 169.03-32.25L169.03-32.25Q166.27-32.25 165.09-31.59 163.9-30.93 163.78-29.54L163.78-29.54Q163.66-27.98 163.67-26.37 163.68-24.76 163.78-23.17L163.78-23.17Q163.88-21.39 164.55-20.45 165.22-19.51 167.74-19.21L167.74-19.21 171.16-18.68Q173.91-18.26 175.31-17.33 176.7-16.41 177.2-14.98 177.7-13.55 177.77-11.57L177.77-11.57Q177.89-9.77 177.87-8.64 177.84-7.52 177.72-5.93L177.72-5.93Q177.55-2.59 175.56-1.14 173.57 0.32 169.18 0.32ZM208.26 0.29L208.26 0.29Q204.45 0.29 203.12-0.98 201.79-2.25 201.79-5.13L201.79-5.13 201.79-21.02 199.44-21.02 199.44-23.75 201.86-23.75 201.86-30.49 204.96-30.49 204.96-23.75 210.33-23.75 210.33-21.02 204.94-21.02 204.94-4.79Q204.94-3.44 205.5-2.93 206.06-2.42 208.33-2.42L208.33-2.42Q209.26-2.42 209.76-2.45 210.26-2.49 210.92-2.51L210.92-2.51 210.92 0.1Q210.33 0.2 209.65 0.24 208.97 0.29 208.26 0.29ZM237.99 0.27L237.99 0.27Q235.01 0.27 233.58-0.9 232.15-2.08 231.91-4.57L231.91-4.57Q231.88-5.05 231.85-5.54 231.81-6.03 231.86-6.49L231.86-6.49Q232.03-8.67 233.23-10.14 234.42-11.62 237.77-12.84L237.77-12.84Q239.13-13.33 240.65-13.72 242.16-14.11 243.65-14.48L243.65-14.48 243.65-18.99Q243.65-20.19 242.75-20.76 241.84-21.34 239.6-21.34L239.6-21.34Q237.64-21.34 236.63-20.85 235.62-20.36 235.52-19.07L235.52-19.07Q235.47-18.46 235.47-17.32 235.47-16.19 235.52-15.41L235.52-15.41 232.47-15.41Q232.42-16.02 232.37-16.99 232.32-17.97 232.4-18.73L232.4-18.73Q232.52-21.56 234.24-22.81 235.96-24.07 239.72-24.07L239.72-24.07Q243.65-24.07 245.18-22.71 246.7-21.34 246.73-18.21L246.73-18.21 246.73 0 243.65 0 243.65-2.25 242.97-2.25Q242.36-1.03 241.22-0.38 240.09 0.27 237.99 0.27ZM238.77-2.37L238.77-2.37Q242.28-2.37 243.63-4.47L243.63-4.47 243.63-11.87Q242.45-11.62 241.22-11.29 239.99-10.96 238.33-10.4L238.33-10.4Q236.35-9.67 235.69-8.72 235.03-7.76 234.93-6.49L234.93-6.49Q234.96-6.13 234.97-5.7 234.98-5.27 235.03-4.81L235.03-4.81Q235.2-3.64 236.2-3 237.2-2.37 238.77-2.37ZM284.68-15.41L284.68-15.41 281.61-15.41Q281.7-16.26 281.69-17.36 281.68-18.46 281.68-19.07L281.68-19.07Q281.66-20.36 280.67-20.85 279.68-21.34 277.43-21.34L277.43-21.34Q275.14-21.34 274.16-20.85 273.18-20.36 273.16-19.07L273.16-19.07Q272.99-15.23 272.99-11.93 272.99-8.62 273.16-4.81L273.16-4.81Q273.18-3.47 274.16-2.95 275.14-2.44 277.41-2.44L277.41-2.44Q279.65-2.44 280.65-2.95 281.66-3.47 281.68-4.81L281.68-4.81Q281.68-5.47 281.69-6.41 281.7-7.35 281.61-8.47L281.61-8.47 284.68-8.47Q284.81-7.76 284.79-6.82 284.78-5.88 284.73-5.13L284.73-5.13Q284.59-2.25 282.94-0.98 281.29 0.29 277.41 0.29L277.41 0.29Q273.5 0.29 271.8-0.98 270.11-2.25 269.99-5.13L269.99-5.13Q269.89-6.93 269.85-9.38 269.81-11.82 269.85-14.28 269.89-16.75 269.99-18.58L269.99-18.58Q270.11-21.53 271.83-22.8 273.55-24.07 277.43-24.07L277.43-24.07Q281.29-24.07 282.99-22.83 284.68-21.58 284.73-18.73L284.73-18.73Q284.78-17.99 284.79-17.05 284.81-16.11 284.68-15.41ZM310.75-7.89L310.75 0 307.7 0 307.7-31.69 310.7-31.69 310.7-23.88 310.43-13.53 311.26-13.53 313.63-18.14 317.29-23.75 320.61-23.75 314.56-14.18 322.03 0 318.73 0 312.7-10.5 310.75-7.89ZM380.75 0L380.75 0 372.21 0 372.21-34.86 380.88-34.86Q385.42-34.86 387.46-33.4 389.5-31.93 389.57-28.54L389.57-28.54Q389.69-24.58 389.73-21.02 389.76-17.46 389.73-13.89 389.69-10.33 389.57-6.35L389.57-6.35Q389.5-2.95 387.44-1.48 385.39 0 380.75 0ZM380.88-31.74L375.6-31.74 375.6-3.13 380.75-3.13Q383.61-3.13 384.88-3.83 386.15-4.54 386.17-5.98L386.17-5.98Q386.54-17.43 386.17-28.93L386.17-28.93Q386.15-30.37 384.89-31.05 383.64-31.74 380.88-31.74L380.88-31.74ZM420.32 0.29L420.32 0.29Q416.29 0.29 414.57-0.98 412.85-2.25 412.73-5.13L412.73-5.13Q412.63-6.93 412.6-9.38 412.56-11.82 412.6-14.28 412.63-16.75 412.73-18.58L412.73-18.58Q412.85-21.53 414.62-22.8 416.39-24.07 420.32-24.07L420.32-24.07Q424.03-24.07 425.69-22.83 427.35-21.58 427.53-18.73L427.53-18.73Q427.57-17.87 427.62-15.75 427.67-13.62 427.48-11.23L427.48-11.23 415.78-11.23Q415.78-9.69 415.81-8.11 415.83-6.52 415.9-4.81L415.9-4.81Q415.93-3.47 416.93-2.95 417.93-2.44 420.23-2.44L420.23-2.44Q422.5-2.44 423.42-2.95 424.35-3.47 424.45-4.81L424.45-4.81Q424.52-6.15 424.45-8.47L424.45-8.47 427.48-8.47Q427.6-7.76 427.59-6.82 427.57-5.88 427.53-5.13L427.53-5.13Q427.35-2.25 425.78-0.98 424.2 0.29 420.32 0.29ZM415.78-13.82L415.78-13.82 424.5-13.82Q424.55-15.48 424.55-16.99 424.55-18.51 424.45-19.07L424.45-19.07Q424.35-20.29 423.4-20.81 422.45-21.34 420.32-21.34L420.32-21.34Q417.95-21.34 416.94-20.81 415.93-20.29 415.9-19.07L415.9-19.07Q415.83-17.65 415.79-16.36 415.76-15.06 415.78-13.82ZM464.97-23.75L460.21 0 453.64 0 449.12-23.75 452.4-23.75 454.25-11.82 455.98-2.71 457.86-2.71 459.7-11.82 461.67-23.75 464.97-23.75ZM494.36 0.29L494.36 0.29Q490.33 0.29 488.61-0.98 486.89-2.25 486.76-5.13L486.76-5.13Q486.67-6.93 486.63-9.38 486.59-11.82 486.63-14.28 486.67-16.75 486.76-18.58L486.76-18.58Q486.89-21.53 488.66-22.8 490.43-24.07 494.36-24.07L494.36-24.07Q498.07-24.07 499.73-22.83 501.39-21.58 501.56-18.73L501.56-18.73Q501.61-17.87 501.66-15.75 501.7-13.62 501.51-11.23L501.51-11.23 489.82-11.23Q489.82-9.69 489.84-8.11 489.86-6.52 489.94-4.81L489.94-4.81Q489.96-3.47 490.96-2.95 491.96-2.44 494.26-2.44L494.26-2.44Q496.53-2.44 497.46-2.95 498.38-3.47 498.48-4.81L498.48-4.81Q498.56-6.15 498.48-8.47L498.48-8.47 501.51-8.47Q501.63-7.76 501.62-6.82 501.61-5.88 501.56-5.13L501.56-5.13Q501.39-2.25 499.81-0.98 498.24 0.29 494.36 0.29ZM489.82-13.82L489.82-13.82 498.53-13.82Q498.58-15.48 498.58-16.99 498.58-18.51 498.48-19.07L498.48-19.07Q498.38-20.29 497.43-20.81 496.48-21.34 494.36-21.34L494.36-21.34Q491.99-21.34 490.97-20.81 489.96-20.29 489.94-19.07L489.94-19.07Q489.86-17.65 489.83-16.36 489.79-15.06 489.82-13.82ZM528.43-31.69L528.43 0 525.26 0 525.26-31.69 528.43-31.69ZM559.8 0.29L559.8 0.29Q555.82 0.29 554.18-1.07 552.54-2.44 552.42-5.62L552.42-5.62Q552.28-7.42 552.23-9.63 552.18-11.84 552.23-14.09 552.28-16.33 552.42-18.16L552.42-18.16Q552.54-21.34 554.19-22.71 555.84-24.07 559.8-24.07L559.8-24.07Q563.8-24.07 565.4-22.71 567-21.34 567.12-18.16L567.12-18.16Q567.27-16.36 567.32-14.15 567.36-11.94 567.32-9.7 567.27-7.47 567.12-5.62L567.12-5.62Q567-2.47 565.4-1.09 563.8 0.29 559.8 0.29ZM559.8-2.44L559.8-2.44Q562.04-2.44 562.99-2.99 563.95-3.54 564.02-4.81L564.02-4.81Q564.26-8.62 564.26-11.89 564.26-15.16 564.02-18.97L564.02-18.97Q563.95-20.26 563.02-20.8 562.09-21.34 559.8-21.34L559.8-21.34Q557.5-21.34 556.56-20.8 555.62-20.26 555.55-18.97L555.55-18.97Q555.33-15.16 555.32-11.88 555.3-8.59 555.55-4.81L555.55-4.81Q555.6-3.54 556.59-2.99 557.57-2.44 559.8-2.44ZM593.7-2.25L593.7 7.91 590.55 7.91 590.55-23.75 593.7-23.75 593.7-21.53 594.38-21.53Q595.21-22.83 596.37-23.45 597.53-24.07 599.56-24.07L599.56-24.07Q602.34-24.07 603.67-22.86 605-21.66 605.08-18.82L605.08-18.82Q605.15-17.58 605.17-15.81 605.2-14.04 605.2-12.07 605.2-10.11 605.17-8.25 605.15-6.4 605.08-4.96L605.08-4.96Q605-2.15 603.61-0.93 602.22 0.29 599.44 0.29L599.44 0.29Q597.61 0.29 596.43-0.31 595.26-0.9 594.38-2.25L594.38-2.25 593.7-2.25ZM598.56-2.37L598.56-2.37Q601.85-2.37 601.95-4.69L601.95-4.69Q602.15-8.47 602.11-12.16 602.07-15.84 601.95-19.09L601.95-19.09Q601.9-20.31 601.17-20.86 600.44-21.41 598.7-21.41L598.7-21.41Q594.97-21.41 593.7-19.19L593.7-19.19 593.7-4.59Q594.36-3.39 595.49-2.88 596.63-2.37 598.56-2.37ZM635.76 0.29L635.76 0.29Q631.73 0.29 630.01-0.98 628.29-2.25 628.16-5.13L628.16-5.13Q628.07-6.93 628.03-9.38 627.99-11.82 628.03-14.28 628.07-16.75 628.16-18.58L628.16-18.58Q628.29-21.53 630.06-22.8 631.83-24.07 635.76-24.07L635.76-24.07Q639.47-24.07 641.13-22.83 642.79-21.58 642.96-18.73L642.96-18.73Q643.01-17.87 643.06-15.75 643.11-13.62 642.91-11.23L642.91-11.23 631.22-11.23Q631.22-9.69 631.24-8.11 631.27-6.52 631.34-4.81L631.34-4.81Q631.36-3.47 632.36-2.95 633.37-2.44 635.66-2.44L635.66-2.44Q637.93-2.44 638.86-2.95 639.79-3.47 639.88-4.81L639.88-4.81Q639.96-6.15 639.88-8.47L639.88-8.47 642.91-8.47Q643.03-7.76 643.02-6.82 643.01-5.88 642.96-5.13L642.96-5.13Q642.79-2.25 641.21-0.98 639.64 0.29 635.76 0.29ZM631.22-13.82L631.22-13.82 639.93-13.82Q639.98-15.48 639.98-16.99 639.98-18.51 639.88-19.07L639.88-19.07Q639.79-20.29 638.83-20.81 637.88-21.34 635.76-21.34L635.76-21.34Q633.39-21.34 632.38-20.81 631.36-20.29 631.34-19.07L631.34-19.07Q631.27-17.65 631.23-16.36 631.19-15.06 631.22-13.82ZM669.3-19.19L669.3 0 666.15 0 666.15-23.75 669.3-23.75 669.3-21.53 669.98-21.53Q670.61-22.75 671.66-23.41 672.71-24.07 674.28-24.07L674.28-24.07Q676.62-24.07 677.75-22.84 678.89-21.61 678.89-18.58L678.89-18.58Q678.89-17.92 678.84-17.02 678.79-16.11 678.69-15.41L678.69-15.41 675.67-15.41Q675.72-15.65 675.73-16.26 675.74-16.87 675.75-17.48 675.77-18.09 675.77-18.31L675.77-18.31Q675.77-20.12 675.15-20.76 674.54-21.41 673.2-21.41L673.2-21.41Q670.35-21.41 669.3-19.19L669.3-19.19Z" opacity="1" transform="matrix(1,0,0,1,0,0)" fill="#00d1cd" class="slogan-text-1" data-fill-palette-color="secondary" id="text-1"></path></svg></g></svg></g></svg></g></svg></g></svg></g></svg></g></svg></g><g mask="url(#a522a075-a6ca-4282-a12b-6d1fff2e8e5b)"><g transform="matrix(3.763790375620071, 0, 0, 3.763790375620071, 28.38511112456922, 1)"><svg xmlns="http://www.w3.org/2000/svg" xmlns:xlink="http://www.w3.org/1999/xlink" version="1.1" x="0" y="0" viewBox="5.774415900571831 21.187727245900945 90.00229660639741 65.14709256612204" enable-background="new 0 0 100 100" xml:space="preserve" height="65.14709256612204" width="90.00229660639741" class="icon-none" data-fill-palette-color="accent" id="none"><path fill="#00d1cd" d="M95.776 58.108C95.776 57.713 95.564 57.349 95.222 57.152L91.575 55.047 95.222 52.94A1.103 1.103 0 0 0 95.222 51.028L43.797 21.335A1.11 1.11 0 0 0 42.692 21.335L6.329 42.33A1.104 1.104 0 0 0 6.329 44.243L9.977 46.35 6.329 48.456A1.103 1.103 0 0 0 6.329 50.37L9.978 52.476 6.329 54.582A1.104 1.104 0 0 0 6.329 56.495L57.756 86.186A1.1 1.1 0 0 0 58.861 86.186L95.223 65.192A1.103 1.103 0 0 0 95.223 63.279L91.575 61.172 95.223 59.066A1.11 1.11 0 0 0 95.776 58.108M43.244 23.567L92.461 51.983 58.308 71.703 9.09 43.287zM89.514 62.533L92.461 64.235 58.308 83.955 9.09 55.539 12.186 53.751 57.756 80.061A1.11 1.11 0 0 0 58.861 80.061L89.382 62.438A1 1 0 0 0 89.514 62.533M58.308 77.828L9.146 49.445 9.09 49.412 12.186 47.625 57.756 73.935A1.1 1.1 0 0 0 58.861 73.935L89.462 56.267C89.551 56.388 89.663 56.494 89.801 56.574L92.462 58.109z" data-fill-palette-color="accent"></path></svg></g></g></svg></g><defs></defs></svg><rect width="395.52" height="247.2" fill="none" stroke="none" visibility="hidden"></rect></g></svg></g></svg>